<svg width="31" height="30" viewBox="0 0 31 30" fill="none" xmlns="http://www.w3.org/2000/svg">
<rect width="31" height="29.8519" rx="4" fill="black"/>
<path d="M12.0133 20V9.6H16.36C17.6933 9.6 18.6667 9.88444 19.28 10.4533C19.8933 11.0133 20.2 11.7689 20.2 12.72C20.2 13.6711 19.8933 14.4311 19.28 15C18.6756 15.5689 17.7022 15.8533 16.36 15.8533H14.2267V20H12.0133ZM14.2267 14.1733H16.0267C16.6311 14.1733 17.1022 14.0711 17.44 13.8667C17.7867 13.6533 17.96 13.2756 17.96 12.7333C17.96 12.2 17.7867 11.8267 17.44 11.6133C17.1022 11.3911 16.6311 11.28 16.0267 11.28H14.2267V14.1733Z" fill="white"/>
</svg>
